:SAMPLES-PER-SECOND 30
:FRAME-RANGE 1-3358
:FULLY-SPECIFIED
:DEGREES
3254
root  -38.4694 38.0848 95.2396 -176.688 -2.54004 -178.748
RightUpLeg  -26.689 8.72661 -6.42663
RightLeg  23.4035 1.82978 0.65996
RightFoot  -12.2142 -0.0318213 6.70953
RightToes  -1.11029e-010 1.2921e-014 -6.02303e-014
Spine  -0.0391789 -10.2312 -13.7585
Spine1  6.16053 -13.0411 10.9729
HEad  20.0965 -64.9016 14.7288
LeftShoulder1  1.14306 -1.41149 -17.8655
LeftArm  -7.17951 22.3369 -47.0275
LeftForeArm  26.8372 0.0041535 -11.051
LeftHand  -0.0558604 4.71401 6.21858
RightShoulder  -0.55372 -4.75309 32.7353
RightArm  -33.328 -5.87187 45.6605
RightForeArm  53.8044 -5.15771 -0.663274
RightHand  0.263902 -7.20331 -17.8485
LeftUpLeg  -1.79142 7.12259 3.06608
LeftLeg  16.7244 12.6278 4.48402
LeftFoot  -18.5166 -0.465177 -9.17111
LeftToes  -1.90334e-010 -8.83595e-011 4.99953e-011
3255
root  -38.7034 38.1169 94.6362 -176.544 0.613831 -178.092
RightUpLeg  -26.9096 5.54255 -3.97164
RightLeg  18.5346 -1.13538 -0.626445
RightFoot  -9.20468 -0.169667 5.7374
RightToes  -1.11029e-010 1.2921e-014 -6.02303e-014
Spine  0.111453 -10.3503 -13.2062
Spine1  6.22272 -13.3025 11.7241
HEad  21.2796 -65.1139 14.6499
LeftShoulder1  1.19776 -1.67756 -17.6542
LeftArm  -7.10901 21.5494 -46.5391
LeftForeArm  25.6536 0.319493 -11.0086
LeftHand  -0.0207053 5.46057 5.35329
RightShoulder  -0.638633 -4.97027 32.7931
RightArm  -33.8572 -6.31334 45.5254
RightForeArm  53.8188 -5.09739 -1.01094
RightHand  0.267239 -7.25504 -17.5912
LeftUpLeg  0.337156 7.22623 3.03296
LeftLeg  15.1467 15.808 4.99084
LeftFoot  -18.3645 -0.475648 -9.52411
LeftToes  -1.90334e-010 -8.83595e-011 4.99953e-011
3256
root  -38.8743 38.104 93.9545 -176.198 3.05901 -177.62
RightUpLeg  -26.6621 1.49813 -1.14403
RightLeg  13.3243 -3.67907 -1.20284
RightFoot  -7.79207 -0.216628 5.27699
RightToes  -1.11029e-010 1.2921e-014 -6.02303e-014
Spine  -0.407157 -10.6048 -12.8402
Spine1  6.9679 -13.7709 12.516
HEad  21.8199 -64.9288 14.7842
LeftShoulder1  1.22419 -1.81792 -17.5002
LeftArm  -6.71549 19.6675 -46.1109
LeftForeArm  25.4609 0.628714 -11.0643
LeftHand  -0.0554535 4.67673 5.78788
RightShoulder  -0.715322 -5.16935 32.7733
RightArm  -34.6719 -6.71349 45.433
RightForeArm  53.181 -5.02625 -1.53199
RightHand  0.245896 -7.15081 -17.2526
LeftUpLeg  2.18628 7.08734 2.77066
LeftLeg  13.7368 18.5179 5.42213
LeftFoot  -18.3126 -0.506612 -10.0947
LeftToes  -1.90334e-010 -8.83595e-011 4.99953e-011
3257
root  -38.9771 38.0255 93.2175 -175.577 4.65471 -177.529
RightUpLeg  -26.3731 -0.916377 0.355552
RightLeg  8.30231 -7.10392 -0.719159
RightFoot  -6.94969 -0.248503 5.24348
RightToes  -1.11029e-010 1.2921e-014 -6.02303e-014
Spine  -0.907983 -10.8263 -12.6425
Spine1  7.02426 -14.0598 13.1064
HEad  22.8658 -64.9628 14.4787
LeftShoulder1  1.32894 -2.44659 -16.6441
LeftArm  -7.1218 17.7167 -46.2479
LeftForeArm  25.1833 0.938724 -10.8619
LeftHand  -0.0532912 4.75424 6.08598
RightShoulder  -0.836218 -5.45822 33.186
RightArm  -35.3061 -7.82264 45.0063
RightForeArm  51.4225 -5.01568 -1.88526
RightHand  0.249623 -7.16403 -17.358
LeftUpLeg  3.50144 6.71623 2.14278
LeftLeg  12.651 20.6872 5.76633
LeftFoot  -18.4679 -0.562444 -10.7799
LeftToes  -1.90334e-010 -8.83595e-011 4.99953e-011
3258
root  -38.9995 37.9508 92.4404 -174.872 5.08342 -177.553
RightUpLeg  -26.0933 -0.35929 0.0022281
RightLeg  4.46984 -12.6252 0.535811
RightFoot  -5.24775 -0.331395 5.54946
RightToes  -1.11029e-010 1.2921e-014 -6.02303e-014
Spine  -1.09151 -11.2936 -12.5449
Spine1  6.79301 -14.6756 13.8742
HEad  23.0488 -65.175 14.9567
LeftShoulder1  1.33138 -2.65475 -15.8097
LeftArm  -7.23797 15.3744 -46.1828
LeftForeArm  24.4543 0.49856 -10.7427
LeftHand  -0.0213191 5.41747 6.24574
RightShoulder  -0.918914 -5.64432 33.5978
RightArm  -35.9751 -8.94537 44.6888
RightForeArm  49.356 -5.00389 -2.28052
RightHand  0.206911 -6.91894 -16.9217
LeftUpLeg  4.62323 6.38374 1.81241
LeftLeg  11.5109 21.5866 5.65397
LeftFoot  -18.5544 -0.610637 -11.4172
LeftToes  -1.90334e-010 -8.83595e-011 4.99953e-011
3259
root  -38.9481 37.834 91.6004 -174.199 4.91254 -177.759
RightUpLeg  -25.9193 0.289353 -0.424572
RightLeg  2.4728 -16.0664 1.31669
RightFoot  -4.12875 -0.385455 5.66399
RightToes  -1.11029e-010 1.2921e-014 -6.02303e-014
Spine  -1.36304 -11.629 -12.5754
Spine1  6.74923 -15.2146 14.7365
HEad  21.9019 -65.4862 16.3165
LeftShoulder1  1.33941 -2.798 -15.3811
LeftArm  -7.06143 12.2807 -45.9357
LeftForeArm  23.7722 -0.508683 -10.6992
LeftHand  -0.0210616 5.42486 6.16777
RightShoulder  -0.982498 -5.79014 33.8292
RightArm  -36.3624 -9.83938 44.6339
RightForeArm  47.8193 -5.00427 -2.51038
RightHand  0.199525 -6.89041 -16.6946
LeftUpLeg  5.59293 6.07659 1.57386
LeftLeg  10.8087 21.5115 5.52088
LeftFoot  -18.796 -0.699766 -12.4255
LeftToes  -1.90334e-010 -8.83595e-011 4.99953e-011
3260
root  -38.8359 37.8493 90.7488 -173.6 4.43579 -177.481
RightUpLeg  -26.2827 0.854593 0.152318
RightLeg  3.49097 -16.6296 0.799647
RightFoot  -1.47883 -0.218871 2.41875
RightToes  -1.11029e-010 1.2921e-014 -6.02303e-014
Spine  -1.59304 -11.6087 -11.8431
Spine1  7.16042 -15.6076 15.5777
HEad  19.6906 -65.4274 18.252
LeftShoulder1  1.36801 -3.02133 -15.0286
LeftArm  -7.03456 8.75924 -45.8198
LeftForeArm  23.6549 -1.8232 -10.5937
LeftHand  -0.0374683 5.09227 6.32072
RightShoulder  -1.02306 -5.88868 33.8799
RightArm  -36.5573 -10.7292 44.9366
RightForeArm  47.7271 -4.99405 -2.58268
RightHand  0.191033 -6.85673 -16.4317
LeftUpLeg  7.06399 5.99558 2.23134
LeftLeg  9.14635 20.8745 4.81983
LeftFoot  -18.1871 -0.70362 -13.5273
LeftToes  -1.90334e-010 -8.83595e-011 4.99953e-011
3261
root  -38.6509 37.9173 89.8029 -173.28 4.03677 -176.72
RightUpLeg  -26.388 1.9023 1.00037
RightLeg  5.03776 -15.3408 -0.280798
RightFoot  3.14033 -0.307628 2.58915
RightToes  -1.11029e-010 1.2921e-014 -6.02303e-014
Spine  -1.69307 -11.298 -10.2644
Spine1  7.74599 -15.7435 15.8795
HEad  16.8898 -65.1552 20.5987
LeftShoulder1  1.41214 -3.30917 -14.7294
LeftArm  -6.71855 5.80701 -45.7988
LeftForeArm  23.7871 -4.41972 -10.5826
LeftHand  -0.0673208 4.55417 6.79702
RightShoulder  -1.02297 -5.87175 34.1322
RightArm  -36.1416 -11.5111 45.1281
RightForeArm  48.3142 -5.0395 -2.23425
RightHand  0.200262 -6.97837 -15.919
LeftUpLeg  8.58102 6.23315 3.74262
LeftLeg  8.4528 19.5943 4.3547
LeftFoot  -17.1908 -0.69761 -15.5792
LeftToes  -1.90334e-010 -8.83595e-011 4.99953e-011
